# xmcd
#
# Track frame offsets:
#	150
#	15322
#	28080
#	44632
#	57457
#	73685
#	90537
#	100325
#	116792
#	133787
#	147320
#	160790
#	173612
#	192672
#	205885
#
# Disc length: 2856 seconds
#
# Revision: 1
# Processed by: cddbd v1.5.2PL0 Copyright (c) Steve Scherf et al.
# Submitted via: audiograbber 1.83.01
#
DISCID=db0b260f
DTITLE=Seamus Moore - The pie bald ass
DYEAR=1900
DGENRE=Irsk
TTITLE0=The pie bald ass
TTITLE1=My navy boots
TTITLE2=The ballad of 90 eggs
TTITLE3=Sing me lovely Leitrim
TTITLE4=The peckaloo
TTITLE5=I love my juggernaut
TTITLE6=Moore on tour
TTITLE7=Never look down on your ass
TTITLE8=The mortgage song
TTITLE9=Mary Anne
TTITLE10=Boyle in the co. roscommon
TTITLE11=The greatesy celebration
TTITLE12=The Sligo way
TTITLE13=As soon as I can
TTITLE14=The ball of yarn
EXTD=
EXTT0=
EXTT1=
EXTT2=
EXTT3=
EXTT4=
EXTT5=
EXTT6=
EXTT7=
EXTT8=
EXTT9=
EXTT10=
EXTT11=
EXTT12=
EXTT13=
EXTT14=
PLAYORDER=
